<mxfile host="app.diagrams.net" modified="2024-03-13T06:26:18.096Z" agent="Mozilla/5.0 (Macintosh; Intel Mac OS X 10_15_7) AppleWebKit/537.36 (KHTML, like Gecko) Chrome/122.0.0.0 Safari/537.36" etag="97NB4kUBnxKlrqz_IDiF" version="24.0.5" type="github">
  <diagram name="Page-1" id="-WqInm78QkvNbHHu8btD">
    <mxGraphModel dx="1306" dy="862" grid="1" gridSize="10" guides="1" tooltips="1" connect="1" arrows="1" fold="1" page="1" pageScale="1" pageWidth="850" pageHeight="1100" math="0" shadow="0">
      <root>
        <mxCell id="0" />
        <mxCell id="1" parent="0" />
        <mxCell id="p__Bm6j1LkBArMX6csND-6" style="edgeStyle=orthogonalEdgeStyle;rounded=0;orthogonalLoop=1;jettySize=auto;html=1;exitX=0.5;exitY=1;exitDx=0;exitDy=0;entryX=0.5;entryY=0;entryDx=0;entryDy=0;" edge="1" parent="1" source="p__Bm6j1LkBArMX6csND-1" target="p__Bm6j1LkBArMX6csND-4">
          <mxGeometry relative="1" as="geometry" />
        </mxCell>
        <mxCell id="p__Bm6j1LkBArMX6csND-7" style="edgeStyle=orthogonalEdgeStyle;rounded=0;orthogonalLoop=1;jettySize=auto;html=1;exitX=0.5;exitY=1;exitDx=0;exitDy=0;" edge="1" parent="1" source="p__Bm6j1LkBArMX6csND-1" target="p__Bm6j1LkBArMX6csND-5">
          <mxGeometry relative="1" as="geometry" />
        </mxCell>
        <mxCell id="p__Bm6j1LkBArMX6csND-9" style="edgeStyle=orthogonalEdgeStyle;rounded=0;orthogonalLoop=1;jettySize=auto;html=1;exitX=0;exitY=0.5;exitDx=0;exitDy=0;" edge="1" parent="1" source="p__Bm6j1LkBArMX6csND-1" target="p__Bm6j1LkBArMX6csND-8">
          <mxGeometry relative="1" as="geometry" />
        </mxCell>
        <mxCell id="p__Bm6j1LkBArMX6csND-1" value="Organization" style="rounded=0;whiteSpace=wrap;html=1;" vertex="1" parent="1">
          <mxGeometry x="320" y="170" width="120" height="60" as="geometry" />
        </mxCell>
        <mxCell id="p__Bm6j1LkBArMX6csND-2" value="&lt;pre style=&quot;background-color:#ffffff;color:#080808;font-family:&#39;JetBrains Mono&#39;,monospace;font-size:9.8pt;&quot;&gt;&lt;span style=&quot;color:#000000;&quot;&gt;CreateOrganizationDefaultRoles&lt;/span&gt;&lt;/pre&gt;" style="text;html=1;align=center;verticalAlign=middle;whiteSpace=wrap;rounded=0;" vertex="1" parent="1">
          <mxGeometry x="40" y="310" width="220" height="30" as="geometry" />
        </mxCell>
        <mxCell id="p__Bm6j1LkBArMX6csND-13" style="edgeStyle=orthogonalEdgeStyle;rounded=0;orthogonalLoop=1;jettySize=auto;html=1;exitX=0.5;exitY=1;exitDx=0;exitDy=0;entryX=1;entryY=0;entryDx=0;entryDy=0;" edge="1" parent="1" source="p__Bm6j1LkBArMX6csND-4" target="p__Bm6j1LkBArMX6csND-12">
          <mxGeometry relative="1" as="geometry" />
        </mxCell>
        <mxCell id="p__Bm6j1LkBArMX6csND-4" value="Otter Admin" style="ellipse;whiteSpace=wrap;html=1;" vertex="1" parent="1">
          <mxGeometry x="305" y="280" width="120" height="80" as="geometry" />
        </mxCell>
        <mxCell id="p__Bm6j1LkBArMX6csND-5" value="Otter Tablet" style="ellipse;whiteSpace=wrap;html=1;" vertex="1" parent="1">
          <mxGeometry x="500" y="290" width="120" height="80" as="geometry" />
        </mxCell>
        <mxCell id="p__Bm6j1LkBArMX6csND-15" style="edgeStyle=orthogonalEdgeStyle;rounded=0;orthogonalLoop=1;jettySize=auto;html=1;exitX=0.5;exitY=1;exitDx=0;exitDy=0;" edge="1" parent="1" source="p__Bm6j1LkBArMX6csND-8" target="p__Bm6j1LkBArMX6csND-12">
          <mxGeometry relative="1" as="geometry" />
        </mxCell>
        <mxCell id="p__Bm6j1LkBArMX6csND-8" value="User1" style="rounded=0;whiteSpace=wrap;html=1;" vertex="1" parent="1">
          <mxGeometry x="170" y="480" width="120" height="60" as="geometry" />
        </mxCell>
        <mxCell id="p__Bm6j1LkBArMX6csND-10" value="&lt;pre style=&quot;background-color:#ffffff;color:#080808;font-family:&#39;JetBrains Mono&#39;,monospace;font-size:9.8pt;&quot;&gt;&lt;span style=&quot;color:#000000;&quot;&gt;BatchAssignRolesToUser&lt;/span&gt;&lt;/pre&gt;" style="text;html=1;align=center;verticalAlign=middle;whiteSpace=wrap;rounded=0;" vertex="1" parent="1">
          <mxGeometry x="70" y="630" width="90" height="30" as="geometry" />
        </mxCell>
        <mxCell id="p__Bm6j1LkBArMX6csND-11" style="edgeStyle=orthogonalEdgeStyle;rounded=0;orthogonalLoop=1;jettySize=auto;html=1;exitX=0.5;exitY=1;exitDx=0;exitDy=0;" edge="1" parent="1" source="p__Bm6j1LkBArMX6csND-10" target="p__Bm6j1LkBArMX6csND-10">
          <mxGeometry relative="1" as="geometry" />
        </mxCell>
        <mxCell id="p__Bm6j1LkBArMX6csND-14" style="edgeStyle=orthogonalEdgeStyle;rounded=0;orthogonalLoop=1;jettySize=auto;html=1;exitX=1;exitY=0;exitDx=0;exitDy=0;entryX=0.5;entryY=1;entryDx=0;entryDy=0;" edge="1" parent="1" source="p__Bm6j1LkBArMX6csND-12" target="p__Bm6j1LkBArMX6csND-4">
          <mxGeometry relative="1" as="geometry" />
        </mxCell>
        <mxCell id="p__Bm6j1LkBArMX6csND-12" value="Otter Admin" style="ellipse;whiteSpace=wrap;html=1;" vertex="1" parent="1">
          <mxGeometry x="220" y="605" width="120" height="80" as="geometry" />
        </mxCell>
        <mxCell id="p__Bm6j1LkBArMX6csND-16" value="User2" style="rounded=0;whiteSpace=wrap;html=1;" vertex="1" parent="1">
          <mxGeometry x="490" y="480" width="120" height="60" as="geometry" />
        </mxCell>
        <mxCell id="p__Bm6j1LkBArMX6csND-17" value="&lt;pre style=&quot;background-color:#ffffff;color:#080808;font-family:&#39;JetBrains Mono&#39;,monospace;font-size:9.8pt;&quot;&gt;&lt;span style=&quot;color:#000000;&quot;&gt;AssignRoleResourceToUser&lt;/span&gt;&lt;/pre&gt;" style="text;whiteSpace=wrap;html=1;" vertex="1" parent="1">
          <mxGeometry x="20" y="770" width="220" height="70" as="geometry" />
        </mxCell>
        <mxCell id="p__Bm6j1LkBArMX6csND-19" style="edgeStyle=orthogonalEdgeStyle;rounded=0;orthogonalLoop=1;jettySize=auto;html=1;exitX=0.5;exitY=0;exitDx=0;exitDy=0;entryX=0.5;entryY=1;entryDx=0;entryDy=0;" edge="1" parent="1" source="p__Bm6j1LkBArMX6csND-18" target="p__Bm6j1LkBArMX6csND-12">
          <mxGeometry relative="1" as="geometry" />
        </mxCell>
        <mxCell id="p__Bm6j1LkBArMX6csND-18" value="Resource1" style="shape=hexagon;perimeter=hexagonPerimeter2;whiteSpace=wrap;html=1;fixedSize=1;" vertex="1" parent="1">
          <mxGeometry x="240" y="745" width="120" height="80" as="geometry" />
        </mxCell>
        <mxCell id="p__Bm6j1LkBArMX6csND-21" style="edgeStyle=orthogonalEdgeStyle;rounded=0;orthogonalLoop=1;jettySize=auto;html=1;exitX=0.5;exitY=0;exitDx=0;exitDy=0;entryX=1;entryY=1;entryDx=0;entryDy=0;" edge="1" parent="1" source="p__Bm6j1LkBArMX6csND-20" target="p__Bm6j1LkBArMX6csND-12">
          <mxGeometry relative="1" as="geometry" />
        </mxCell>
        <mxCell id="p__Bm6j1LkBArMX6csND-20" value="Resource2" style="shape=hexagon;perimeter=hexagonPerimeter2;whiteSpace=wrap;html=1;fixedSize=1;" vertex="1" parent="1">
          <mxGeometry x="360" y="750" width="120" height="80" as="geometry" />
        </mxCell>
      </root>
    </mxGraphModel>
  </diagram>
</mxfile>
